<svg xmlns="http://www.w3.org/2000/svg" viewBox="0 0 59.7 59.7"><defs><style>.cls-1{fill:#fff;}</style></defs><title>instagram</title><g id="Layer_2" data-name="Layer 2"><g id="Layer_1-2" data-name="Layer 1"><path class="cls-1" d="M0,40.51V19.19c0-.19.07-.38.09-.58.16-1.7.21-3.43.51-5.11A15.6,15.6,0,0,1,5.22,4.71c3.11-3,6.92-4.18,11.1-4.5L19.19,0H40.51c.19,0,.38.07.57.09,1.7.16,3.43.21,5.11.51a15.61,15.61,0,0,1,8.92,4.75,17.4,17.4,0,0,1,4.38,10.85c.09,1,.14,2,.21,3V40.51c0,.19-.07.38-.09.58-.16,1.7-.21,3.43-.51,5.11A15.6,15.6,0,0,1,54.48,55c-3.11,3-6.92,4.18-11.1,4.5l-2.87.21H19.19c-.19,0-.38-.07-.57-.09-1.7-.16-3.43-.21-5.11-.51a15.61,15.61,0,0,1-8.92-4.75A17.39,17.39,0,0,1,.21,43.51C.13,42.51.07,41.51,0,40.51ZM54.22,29.85h0c0-2.51.06-5,0-7.52a64.12,64.12,0,0,0-.49-7.48,9.84,9.84,0,0,0-7.49-8.59,29.4,29.4,0,0,0-7.74-.75q-8.08-.12-16.17,0A54.8,54.8,0,0,0,14.83,6a9.83,9.83,0,0,0-8.56,7.45,29.34,29.34,0,0,0-.77,7.8C5.42,26.6,5.43,32,5.5,37.34A55,55,0,0,0,6,44.88a9.83,9.83,0,0,0,7.46,8.55,29.48,29.48,0,0,0,7.8.76c5.35.08,10.7.08,16,0a56.45,56.45,0,0,0,7.54-.49,9.84,9.84,0,0,0,8.6-7.48,31.17,31.17,0,0,0,.76-7.74C54.29,35.62,54.22,32.73,54.22,29.85Z"/><path class="cls-1" d="M29.91,14.44A15.41,15.41,0,1,1,14.45,29.78,15.38,15.38,0,0,1,29.91,14.44ZM29.85,39.7A9.85,9.85,0,1,0,20,29.82,9.78,9.78,0,0,0,29.85,39.7Z"/><path class="cls-1" d="M45.78,17.56a3.64,3.64,0,1,1,3.64-3.63A3.6,3.6,0,0,1,45.78,17.56Z"/></g></g></svg>