<svg xmlns="http://www.w3.org/2000/svg" viewBox="0 0 64.77 61.92"><defs><style>.cls-1{fill:#fff;}</style></defs><title>linkedIn</title><g id="Layer_2" data-name="Layer 2"><g id="Layer_1-2" data-name="Layer 1"><g id="linkedin"><path class="cls-1" d="M7.85,0C3.1,0,0,3.12,0,7.23s3,7.22,7.67,7.22h.09c4.84,0,7.85-3.21,7.85-7.22S12.6,0,7.85,0Z"/><rect class="cls-1" x="0.82" y="20.14" width="13.87" height="41.78"/><path class="cls-1" d="M48.79,19.16a13.75,13.75,0,0,0-12.51,6.9V20.14H22.39c.18,3.91,0,41.78,0,41.78H36.27V38.59a9.09,9.09,0,0,1,.47-3.39,7.58,7.58,0,0,1,7.11-5.08c5,0,7,3.83,7,9.44V61.92H64.77V38C64.77,25.13,57.92,19.16,48.79,19.16Z"/></g></g></g></svg>