<svg xmlns="http://www.w3.org/2000/svg" viewBox="0 0 113.65 36.28"><defs><style>.cls-1{isolation:isolate;}.cls-2{mix-blend-mode:multiply;}.cls-3{fill:#fff;}</style></defs><title>CSUN_footer_logo</title><g class="cls-1"><g id="Layer_2" data-name="Layer 2"><g id="Layer_1-2" data-name="Layer 1"><g class="cls-2"><path class="cls-3" d="M92.62,5.18V6.64c3.74.43,4.56,1.81,4.56,5.47V23.61H97L83,5.18H64.64V6.64c3.74.43,4.56,1.81,4.56,5.47v9.8c0,3-.59,4.41-1.89,5.75a6.11,6.11,0,0,1-4.52,1.69c-4.21,0-6.81-2-6.81-6.57V8.37c0-1.3.71-1.57,3.42-1.69V5.18H43.46a29,29,0,0,1-3.28-.12c-.82-.13-1.78-.49-2.59-.64a14.89,14.89,0,0,0-2.73-.22,8.18,8.18,0,0,0-8.49,8.57c0,4.84,3.94,6.37,7.91,7.63,4.52,1.5,6.26,2.52,6.26,5.23,0,2.09-1.42,4.41-4.84,4.41-3.27,0-5.7-2-7.71-6.44H26.05v8.13h1.67L29,30.57a15.36,15.36,0,0,0,6.1,1.18c6.65,0,9.25-4.45,9.25-8.81,0-4.88-3.86-6.41-7.47-7.59-4.33-1.38-6.26-2.24-6.26-4.92a3.93,3.93,0,0,1,4.17-4.13c2.87,0,5.28,1,6.57,4.65H43v-.72A3.51,3.51,0,0,1,46.8,6.71a3.51,3.51,0,0,1,3.75,3.51V23c0,5.78,4,8.74,10.62,8.74s10-3.82,10-8.89V10.22a3.75,3.75,0,0,1,7.48,0V24.11c0,3.74-.51,5-4,5.51v1.46H84.87V29.62c-3.78-.47-4.25-1.81-4.25-5.51V10.94h.14L96.54,31.75h2.58V12.11c0-3.66.28-5,3.78-5.47V5.18Z"/><path class="cls-3" d="M14.47,29.29C10.31,29.29,6,25.53,6,17.68,6,10,9.55,6.1,13.6,6.1c3.45,0,6.06,2.9,7.65,7.69H23V4.4H21.44L20.29,6.1a14.15,14.15,0,0,0-6.58-1.7A13.5,13.5,0,0,0,0,18.31c0,7.81,4.8,13.44,13,13.44,5.67,0,9.2-3.14,11.06-7.42l-1.51-.71c-1.86,3.77-4.44,5.68-8.13,5.68"/></g><rect class="cls-3" x="112.87" width="0.78" height="36.28"/></g></g></g></svg>