<svg xmlns="http://www.w3.org/2000/svg" viewBox="0 0 72 58.52"><defs><style>.cls-1{fill:#fff;}</style></defs><title>twitter</title><g id="Layer_2" data-name="Layer 2"><g id="Layer_1-2" data-name="Layer 1"><g id="twitter"><g id="twitter-icon"><path class="cls-1" d="M72,6.93a29.5,29.5,0,0,1-8.48,2.33A14.82,14.82,0,0,0,70,1.08a29.45,29.45,0,0,1-9.37,3.59A14.78,14.78,0,0,0,35.47,18.14,41.94,41.94,0,0,1,5,2.71,14.8,14.8,0,0,0,9.59,22.44a14.68,14.68,0,0,1-6.7-1.84A14.79,14.79,0,0,0,14.75,35.27a15,15,0,0,1-6.67.26,14.77,14.77,0,0,0,13.8,10.25A29.8,29.8,0,0,1,0,51.88a41.81,41.81,0,0,0,22.64,6.64c27.43,0,42.93-23.17,42-43.93A30.08,30.08,0,0,0,72,6.93Z"/></g></g></g></g></svg>