<svg xmlns="http://www.w3.org/2000/svg" viewBox="0 0 57.45 68.89"><defs><style>.cls-1{fill:#fff;}</style></defs><title>Youtube</title><g id="Layer_2" data-name="Layer 2"><g id="Layer_1-2" data-name="Layer 1"><g id="youtube"><polygon class="cls-1" points="13.46 25.41 17.39 25.41 17.39 14.87 21.96 0 17.98 0 15.56 10.15 15.29 10.15 12.76 0 8.8 0 13.46 15.34 13.46 25.41"/><path class="cls-1" d="M21.78,20.67a5.2,5.2,0,0,0,1.38,3.8,4.83,4.83,0,0,0,3.65,1.42,5,5,0,0,0,3.73-1.36,5.09,5.09,0,0,0,1.36-3.78v-9.7a4.68,4.68,0,0,0-1.38-3.5A4.9,4.9,0,0,0,27,6.19a5.3,5.3,0,0,0-3.78,1.3A4.47,4.47,0,0,0,21.81,11v9.71Zm3.58-9.87a1.31,1.31,0,0,1,.4-1,1.44,1.44,0,0,1,1-.37,1.63,1.63,0,0,1,1.12.37,1.25,1.25,0,0,1,.43,1V21a1.63,1.63,0,0,1-.41,1.18,1.5,1.5,0,0,1-1.13.43,1.32,1.32,0,0,1-1.06-.43,1.73,1.73,0,0,1-.37-1.2V10.8Z"/><path class="cls-1" d="M37.28,25.68a4.15,4.15,0,0,0,2-.59,7.47,7.47,0,0,0,2-1.75v2.07h3.49V6.67H41.31V20.89a4.89,4.89,0,0,1-1.07,1,1.86,1.86,0,0,1-1,.39.8.8,0,0,1-.7-.29,1.64,1.64,0,0,1-.22-1V6.67H34.86V22.33a4.18,4.18,0,0,0,.62,2.51A2.1,2.1,0,0,0,37.28,25.68Z"/><path class="cls-1" d="M34.79,45.9a1.56,1.56,0,0,0-.73.19,2.62,2.62,0,0,0-.73.56V58.34a3.1,3.1,0,0,0,.83.66,1.81,1.81,0,0,0,.84.21,1.1,1.1,0,0,0,.94-.4,2.11,2.11,0,0,0,.3-1.3V47.84a2.38,2.38,0,0,0-.37-1.45A1.21,1.21,0,0,0,34.79,45.9Z"/><path class="cls-1" d="M47.6,46a1.37,1.37,0,0,0-1.2.51A3.07,3.07,0,0,0,46,48.17v1.9h3.09v-1.9a3,3,0,0,0-.37-1.69A1.29,1.29,0,0,0,47.6,46Z"/><path class="cls-1" d="M57.07,38.8a8.26,8.26,0,0,0-8.29-8.2q-9.32-.37-19-.39h-2q-9.69,0-19,.39A8.25,8.25,0,0,0,.39,38.8Q0,44.19,0,49.56T.39,60.32a8.26,8.26,0,0,0,8.29,8.2c6.53.28,13.23.4,20,.37s13.5-.1,20-.37a8.25,8.25,0,0,0,8.29-8.2c.28-3.6.39-7.18.39-10.76S57.35,42.38,57.07,38.8ZM12.46,61.89H8.53V40.18H4.47V36.48h12v3.69H12.46V61.89Zm14,0H22.93V59.82a7.88,7.88,0,0,1-2,1.74,4.09,4.09,0,0,1-2,.59,2.13,2.13,0,0,1-1.82-.83,4.36,4.36,0,0,1-.61-2.52V43.15H20V57.52a1.64,1.64,0,0,0,.22,1,.82.82,0,0,0,.7.29,2.08,2.08,0,0,0,1-.39,4.89,4.89,0,0,0,1.07-1V43.15h3.49V61.89ZM39.83,58A5,5,0,0,1,39,61.06a2.83,2.83,0,0,1-2.37,1.06,3.85,3.85,0,0,1-1.82-.41,4.52,4.52,0,0,1-1.49-1.27v1.45H29.83V36.48h3.51v8.18a5.41,5.41,0,0,1,1.49-1.31,3.17,3.17,0,0,1,1.6-.45A2.92,2.92,0,0,1,39,44.1a5.94,5.94,0,0,1,.87,3.5V58Zm12.88-5H46v3.53a4.29,4.29,0,0,0,.34,2.05,1.26,1.26,0,0,0,1.17.58,1.41,1.41,0,0,0,1.21-.48,4.2,4.2,0,0,0,.34-2.14V55.2H52.7V56.6a6.33,6.33,0,0,1-1.31,4.34,5,5,0,0,1-3.91,1.45,4.61,4.61,0,0,1-3.68-1.54,6.28,6.28,0,0,1-1.34-4.26V48.17a5.44,5.44,0,0,1,1.47-4,5.11,5.11,0,0,1,3.83-1.54,4.7,4.7,0,0,1,3.66,1.42,5.91,5.91,0,0,1,1.28,4.08V53Z"/></g></g></g></svg>